<?xml version="1.0" encoding="UTF-8"?>
<svg id="Capa_1" data-name="Capa 1" xmlns="http://www.w3.org/2000/svg" xmlns:xlink="http://www.w3.org/1999/xlink" viewBox="0 0 1024 235.02">
  <defs>
    <style>
      .cls-1 {
        stroke: #9acaef;
      }

      .cls-1, .cls-2, .cls-3 {
        fill: none;
        stroke-linecap: round;
        stroke-linejoin: round;
        stroke-width: 26.45px;
      }

      .cls-4 {
        fill: url(#Degradado_sin_nombre_1037);
        stroke-width: 0px;
      }

      .cls-2 {
        stroke: #6aa3d8;
      }

      .cls-3 {
        stroke: #4e81cc;
      }
    </style>
    <linearGradient id="Degradado_sin_nombre_1037" data-name="Degradado sin nombre 1037" x1="33.31" y1="117.51" x2="990.69" y2="117.51" gradientUnits="userSpaceOnUse">
      <stop offset="0" stop-color="#3757a6"/>
      <stop offset="1" stop-color="#56b0e2"/>
    </linearGradient>
  </defs>
  <path class="cls-4" d="m165.97,66.75v114.82c0,3.44-1.12,6.31-3.37,8.63-2.25,2.31-5.22,3.47-8.92,3.47s-6.71-1.16-9.02-3.47c-2.31-2.31-3.47-5.19-3.47-8.63v-79.82l-32.72,49.88c-1.19,1.46-2.68,2.71-4.46,3.77-1.78,1.06-3.6,1.52-5.45,1.39-1.72.13-3.47-.33-5.25-1.39-1.78-1.06-3.27-2.31-4.46-3.77l-32.72-51.73v81.68c0,3.44-1.06,6.31-3.17,8.63-2.12,2.31-4.89,3.47-8.33,3.47s-6.02-1.16-8.13-3.47c-2.12-2.31-3.17-5.19-3.17-8.63v-114.82c0-3.3,1.22-6.15,3.67-8.53,2.44-2.38,5.39-3.57,8.82-3.57,1.85,0,3.8.5,5.85,1.49,2.05.99,3.6,2.28,4.66,3.87l43.17,66.45,44.48-66.45c2.51-3.57,5.75-5.35,9.72-5.35,3.17,0,6.01,1.12,8.53,3.37,2.51,2.25,3.77,5.16,3.77,8.72Zm47.98-13.48c-1.85-1.45-5.09-2.18-9.72-2.18-4.23,0-7.37.69-9.42,2.08-2.05,1.39-3.07,4-3.07,7.83v3.77c0,3.7.92,6.28,2.78,7.73,1.85,1.46,5.02,2.18,9.52,2.18s7.73-.69,9.72-2.08c1.98-1.39,2.97-4,2.97-7.83v-3.77c0-3.7-.93-6.28-2.78-7.73Zm-9.72,34.31c-3.44,0-6.28,1.16-8.53,3.47-2.25,2.31-3.37,5.19-3.37,8.63v81.9c0,3.44,1.12,6.31,3.37,8.63,2.25,2.31,5.09,3.47,8.53,3.47s6.28-1.16,8.53-3.47c2.25-2.31,3.37-5.19,3.37-8.63v-81.9c0-3.44-1.12-6.31-3.37-8.63-2.25-2.31-5.09-3.47-8.53-3.47Zm115.31,4.16c-5.09-4.1-12.53-6.15-22.31-6.15-4.5,0-8.66.69-12.49,2.08-3.84,1.39-7.27,3.21-10.31,5.45-3.04,2.25-5.69,4.66-7.93,7.24-.8.92-1.51,1.81-2.18,2.69v-3.39c0-3.44-1.12-6.31-3.37-8.63-2.25-2.31-5.09-3.47-8.53-3.47s-6.28,1.16-8.53,3.47c-2.25,2.31-3.37,5.19-3.37,8.63v81.9c0,3.44,1.12,6.31,3.37,8.63,2.25,2.31,5.09,3.47,8.53,3.47s6.28-1.16,8.53-3.47c2.25-2.31,3.37-5.19,3.37-8.63v-50.76c0-4.36.96-8.29,2.88-11.8,1.91-3.5,4.69-6.31,8.33-8.43,3.63-2.11,8.1-3.17,13.39-3.17s9.58,1.06,12.49,3.17c2.91,2.12,4.92,4.93,6.05,8.43,1.12,3.5,1.69,7.44,1.69,11.8v50.76c0,3.44,1.12,6.31,3.37,8.63,2.25,2.31,5.09,3.47,8.53,3.47s6.28-1.16,8.53-3.47c2.25-2.31,3.37-5.19,3.37-8.63v-50.76c0-8.33-.96-15.89-2.88-22.7-1.92-6.81-5.42-12.26-10.51-16.36Zm133.55-41.44c2.25,2.25,3.37,5.16,3.37,8.73v122.55c0,3.44-1.12,6.31-3.37,8.63-2.25,2.31-5.09,3.47-8.53,3.47s-6.28-1.16-8.53-3.47c-2.2-2.26-3.32-5.07-3.36-8.41-1.62,1.8-3.61,3.58-5.96,5.34-3.17,2.38-6.91,4.4-11.2,6.05-4.3,1.65-8.96,2.48-13.98,2.48-9.12,0-17.38-2.35-24.79-7.04-7.4-4.69-13.25-11.17-17.55-19.43-4.3-8.26-6.45-17.75-6.45-28.46s2.15-20.39,6.45-28.65c4.29-8.26,10.08-14.74,17.35-19.43,7.27-4.69,15.33-7.04,24.19-7.04,5.68,0,10.91.86,15.67,2.58,4.76,1.72,8.89,3.9,12.39,6.54,1.42,1.07,2.71,2.15,3.87,3.24v-38.93c0-3.44,1.12-6.31,3.37-8.63,2.25-2.31,5.09-3.47,8.53-3.47s6.28,1.12,8.53,3.37Zm-19.43,90.42c0-6.35-1.22-12.03-3.67-17.05-2.45-5.02-5.85-8.99-10.21-11.9-4.36-2.91-9.45-4.36-15.27-4.36s-10.71,1.46-15.07,4.36c-4.36,2.91-7.77,6.87-10.21,11.9-2.45,5.03-3.67,10.71-3.67,17.05s1.22,11.83,3.67,16.86c2.44,5.03,5.85,8.99,10.21,11.9,4.36,2.91,9.39,4.36,15.07,4.36s10.91-1.45,15.27-4.36c4.36-2.91,7.76-6.87,10.21-11.9,2.45-5.02,3.67-10.64,3.67-16.86Zm75.42-40.29c6.67-4.17,14.03-6.25,22.09-6.25,5.14,0,9.48.35,13.02,1.04,3.54.7,6.28,1.53,8.23,2.5,2.08.97,3.61,2.05,4.58,3.23.97,1.18,1.91,2.19,2.81,3.02.9.83,2.12,1.25,3.65,1.25,1.11,0,2.05-.45,2.81-1.35.76-.9,1.15-1.84,1.15-2.81,0-2.5-1.7-4.9-5.1-7.19-3.41-2.29-7.85-4.13-13.34-5.52-5.49-1.39-11.36-2.08-17.61-2.08-10.56,0-19.76,2.54-27.61,7.6-7.85,5.07-13.96,11.74-18.34,20-4.38,8.27-6.56,17.26-6.56,26.98,0,10.42,2.19,19.76,6.56,28.02,4.38,8.27,10.45,14.79,18.23,19.59,7.78,4.79,16.74,7.19,26.88,7.19,7.5,0,13.99-1.04,19.48-3.13,5.49-2.08,9.76-4.48,12.81-7.19,3.05-2.71,4.58-4.9,4.58-6.56,0-1.11-.31-2.01-.94-2.71-.63-.69-1.49-1.04-2.6-1.04-1.53,0-2.85.77-3.96,2.29-1.11,1.53-3.13,3.13-6.04,4.79-2.36,1.39-5.18,2.68-8.44,3.85-3.26,1.18-8.02,1.77-14.27,1.77-8.75,0-16.43-2.05-23.02-6.15-6.6-4.1-11.74-9.69-15.42-16.77-3.68-7.08-5.52-15.07-5.52-23.96s1.98-16.63,5.94-23.65c3.96-7.01,9.27-12.61,15.94-16.77Zm143.13-6.67c-5.49-3.61-12.4-5.42-20.73-5.42-5,0-10,1.01-15,3.02-5,2.01-9.55,4.79-13.65,8.33-3.35,2.89-6.16,6.14-8.44,9.74V43.54c0-1.11-.38-2.08-1.15-2.92-.76-.83-1.77-1.25-3.02-1.25-1.11,0-2.08.42-2.92,1.25-.83.83-1.25,1.81-1.25,2.92v145.85c0,1.11.38,2.08,1.15,2.92.76.83,1.77,1.25,3.02,1.25,1.11,0,2.08-.42,2.92-1.25.83-.83,1.25-1.8,1.25-2.92v-60.84c0-5.97,1.84-11.39,5.52-16.25,3.68-4.86,8.37-8.75,14.06-11.67,5.69-2.92,11.53-4.38,17.5-4.38,6.94,0,12.5,1.46,16.67,4.38,4.17,2.92,7.22,6.81,9.17,11.67,1.94,4.86,2.92,10.28,2.92,16.25v60.84c0,1.11.38,2.08,1.15,2.92.76.83,1.77,1.25,3.02,1.25,1.11,0,2.08-.42,2.92-1.25s1.25-1.8,1.25-2.92v-60.84c0-7.36-1.35-14.1-4.06-20.21-2.71-6.11-6.81-10.97-12.29-14.59Zm44.35,44.38c-.03.89-.05,1.79-.05,2.71,0,8.47,1.7,16.25,5.11,23.34,3.4,7.08,8.47,12.78,15.21,17.08,6.74,4.31,15.03,6.46,24.9,6.46,4.72,0,9.17-.8,13.33-2.4,4.17-1.6,7.92-3.72,11.25-6.36,3.33-2.64,6.04-5.49,8.13-8.54,1.11-1.25,2.29-1.88,3.54-1.88.97,0,1.8.38,2.5,1.15.69.76,1.04,1.63,1.04,2.6s-.28,1.81-.83,2.5c-4.31,5.56-9.83,10.42-16.56,14.59-6.74,4.17-14.2,6.25-22.4,6.25-10.42,0-19.62-2.22-27.61-6.67-7.99-4.44-14.27-10.73-18.86-18.86-4.58-8.13-6.88-17.67-6.88-28.65,0-11.67,2.26-21.6,6.77-29.8,4.51-8.19,10.35-14.48,17.5-18.86,7.15-4.38,14.76-6.56,22.82-6.56,5.83,0,11.53.94,17.08,2.81,5.55,1.88,10.52,4.79,14.9,8.75,4.38,3.96,7.92,8.89,10.63,14.79,2.71,5.91,4.2,12.95,4.48,21.15,0,1.11-.42,2.12-1.25,3.02-.83.9-1.81,1.35-2.92,1.35h-81.83Zm3.59-17.71c-1.25,3-2.18,6.27-2.78,9.79h76.65v-1.87c-.7-7.36-3.02-13.54-6.98-18.54-3.96-5-8.72-8.78-14.27-11.36-5.56-2.57-11.32-3.85-17.29-3.85-4.17,0-8.54.94-13.13,2.81-4.58,1.87-8.82,4.72-12.71,8.54-3.89,3.82-7.05,8.65-9.48,14.48Zm128.63-20c6.67-4.17,14.03-6.25,22.09-6.25,5.14,0,9.48.35,13.02,1.04,3.54.7,6.28,1.53,8.23,2.5,2.08.97,3.61,2.05,4.58,3.23.97,1.18,1.91,2.19,2.81,3.02.9.83,2.12,1.25,3.65,1.25,1.11,0,2.05-.45,2.81-1.35.76-.9,1.15-1.84,1.15-2.81,0-2.5-1.7-4.9-5.1-7.19-3.41-2.29-7.85-4.13-13.34-5.52-5.49-1.39-11.36-2.08-17.61-2.08-10.56,0-19.76,2.54-27.61,7.6-7.85,5.07-13.96,11.74-18.34,20-4.38,8.27-6.56,17.26-6.56,26.98,0,10.42,2.19,19.76,6.56,28.02,4.38,8.27,10.45,14.79,18.23,19.59,7.78,4.79,16.74,7.19,26.88,7.19,7.5,0,13.99-1.04,19.48-3.13,5.49-2.08,9.76-4.48,12.81-7.19,3.05-2.71,4.58-4.9,4.58-6.56,0-1.11-.31-2.01-.94-2.71-.63-.69-1.49-1.04-2.6-1.04-1.53,0-2.85.77-3.96,2.29-1.11,1.53-3.13,3.13-6.04,4.79-2.36,1.39-5.18,2.68-8.44,3.85-3.26,1.18-8.02,1.77-14.27,1.77-8.75,0-16.43-2.05-23.02-6.15-6.6-4.1-11.74-9.69-15.42-16.77-3.68-7.08-5.52-15.07-5.52-23.96s1.98-16.63,5.94-23.65c3.96-7.01,9.27-12.61,15.94-16.77Zm160.65,85.84l-48.36-51.37,46.9-39.06c.97-.83,1.46-1.88,1.46-3.13s-.42-2.29-1.25-3.13c-.83-.83-1.81-1.25-2.92-1.25-.97,0-1.88.42-2.71,1.25l-65.42,54.89V43.54c0-1.11-.38-2.08-1.15-2.92-.76-.83-1.77-1.25-3.02-1.25s-2.26.42-3.02,1.25c-.77.83-1.15,1.81-1.15,2.92v145.85c0,1.11.38,2.08,1.15,2.92.76.83,1.77,1.25,3.02,1.25s2.26-.42,3.02-1.25c.76-.83,1.15-1.8,1.15-2.92v-34.55l17.58-14.64,48.68,51.9c.97.97,2.01,1.46,3.13,1.46.55,0,1.39-.34,2.5-1.04,1.11-.69,1.67-1.74,1.67-3.13,0-1.25-.42-2.29-1.25-3.13Z"/>
  <g>
    <polyline class="cls-3" points="66.95 98.11 98.12 146.65 151.87 68.16"/>
    <polyline class="cls-2" points="73.61 108.49 98.12 146.65 151.87 68.16"/>
    <polyline class="cls-1" points="84.45 125.37 98.12 146.65 153.94 65.14"/>
  </g>
</svg>