<?xml version="1.0" encoding="UTF-8"?>
<svg id="Capa_1" data-name="Capa 1" xmlns="http://www.w3.org/2000/svg" xmlns:xlink="http://www.w3.org/1999/xlink" viewBox="0 0 957.36 270.33">
  <defs>
    <style>
      .cls-1, .cls-2, .cls-3, .cls-4, .cls-5 {
        fill: none;
      }

      .cls-1, .cls-5 {
        stroke: #fff;
        stroke-miterlimit: 10;
      }

      .cls-2 {
        stroke: #4e81cc;
      }

      .cls-2, .cls-3, .cls-4 {
        stroke-linecap: round;
        stroke-linejoin: round;
        stroke-width: 26.45px;
      }

      .cls-6 {
        fill: #fff;
      }

      .cls-6, .cls-7 {
        stroke-width: 0px;
      }

      .cls-3 {
        stroke: #9acaef;
      }

      .cls-7 {
        fill: url(#Degradado_sin_nombre_2);
      }

      .cls-4 {
        stroke: #6aa3d8;
      }

      .cls-5 {
        stroke-dasharray: 0 0 11.95 11.95;
      }
    </style>
    <linearGradient id="Degradado_sin_nombre_2" data-name="Degradado sin nombre 2" x1="0" y1="199.17" x2="957.36" y2="199.17" gradientTransform="translate(0 391.35) scale(1 -1)" gradientUnits="userSpaceOnUse">
      <stop offset="0" stop-color="#3757a6"/>
      <stop offset="1" stop-color="#56b0e2"/>
    </linearGradient>
  </defs>
  <path class="cls-7" d="m132.64,141.41v114.82c0,3.44-1.12,6.31-3.37,8.63-2.25,2.31-5.22,3.47-8.92,3.47s-6.71-1.16-9.02-3.47-3.47-5.19-3.47-8.63v-79.82l-32.72,49.88c-1.19,1.46-2.68,2.71-4.46,3.77s-3.6,1.52-5.45,1.39c-1.72.13-3.47-.33-5.25-1.39s-3.27-2.31-4.46-3.77l-32.72-51.73v81.68c0,3.44-1.06,6.31-3.17,8.63-2.12,2.31-4.89,3.47-8.33,3.47s-6.02-1.16-8.13-3.47c-2.12-2.31-3.17-5.19-3.17-8.63v-114.82c0-3.3,1.22-6.15,3.67-8.53,2.44-2.38,5.39-3.57,8.82-3.57,1.85,0,3.8.5,5.85,1.49s3.6,2.28,4.66,3.87l43.17,66.45,44.48-66.45c2.51-3.57,5.75-5.35,9.72-5.35,3.17,0,6.01,1.12,8.53,3.37,2.51,2.25,3.77,5.16,3.77,8.72h-.03Zm47.98-13.48c-1.85-1.45-5.09-2.18-9.72-2.18-4.23,0-7.37.69-9.42,2.08s-3.07,4-3.07,7.83v3.77c0,3.7.92,6.28,2.78,7.73,1.85,1.46,5.02,2.18,9.52,2.18s7.73-.69,9.72-2.08c1.98-1.39,2.97-4,2.97-7.83v-3.77c0-3.7-.93-6.28-2.78-7.73Zm-9.72,34.31c-3.44,0-6.28,1.16-8.53,3.47s-3.37,5.19-3.37,8.63v81.9c0,3.44,1.12,6.31,3.37,8.63,2.25,2.31,5.09,3.47,8.53,3.47s6.28-1.16,8.53-3.47,3.37-5.19,3.37-8.63v-81.9c0-3.44-1.12-6.31-3.37-8.63-2.25-2.31-5.09-3.47-8.53-3.47Zm115.31,4.16c-5.09-4.1-12.53-6.15-22.31-6.15-4.5,0-8.66.69-12.49,2.08-3.84,1.39-7.27,3.21-10.31,5.45-3.04,2.25-5.69,4.66-7.93,7.24-.8.92-1.51,1.81-2.18,2.69v-3.39c0-3.44-1.12-6.31-3.37-8.63-2.25-2.31-5.09-3.47-8.53-3.47s-6.28,1.16-8.53,3.47-3.37,5.19-3.37,8.63v81.9c0,3.44,1.12,6.31,3.37,8.63,2.25,2.31,5.09,3.47,8.53,3.47s6.28-1.16,8.53-3.47,3.37-5.19,3.37-8.63v-50.76c0-4.36.96-8.29,2.88-11.8,1.91-3.5,4.69-6.31,8.33-8.43,3.63-2.11,8.1-3.17,13.39-3.17s9.58,1.06,12.49,3.17c2.91,2.12,4.92,4.93,6.05,8.43,1.12,3.5,1.69,7.44,1.69,11.8v50.76c0,3.44,1.12,6.31,3.37,8.63,2.25,2.31,5.09,3.47,8.53,3.47s6.28-1.16,8.53-3.47,3.37-5.19,3.37-8.63v-50.76c0-8.33-.96-15.89-2.88-22.7s-5.42-12.26-10.51-16.36h-.02Zm133.55-41.44c2.25,2.25,3.37,5.16,3.37,8.73v122.55c0,3.44-1.12,6.31-3.37,8.63-2.25,2.31-5.09,3.47-8.53,3.47s-6.28-1.16-8.53-3.47c-2.2-2.26-3.32-5.07-3.36-8.41-1.62,1.8-3.61,3.58-5.96,5.34-3.17,2.38-6.91,4.4-11.2,6.05-4.3,1.65-8.96,2.48-13.98,2.48-9.12,0-17.38-2.35-24.79-7.04-7.4-4.69-13.25-11.17-17.55-19.43-4.3-8.26-6.45-17.75-6.45-28.46s2.15-20.39,6.45-28.65c4.29-8.26,10.08-14.74,17.35-19.43,7.27-4.69,15.33-7.04,24.19-7.04,5.68,0,10.91.86,15.67,2.58s8.89,3.9,12.39,6.54c1.42,1.07,2.71,2.15,3.87,3.24v-38.93c0-3.44,1.12-6.31,3.37-8.63,2.25-2.31,5.09-3.47,8.53-3.47s6.28,1.12,8.53,3.37v-.02Zm-19.43,90.42c0-6.35-1.22-12.03-3.67-17.05-2.45-5.02-5.85-8.99-10.21-11.9s-9.45-4.36-15.27-4.36-10.71,1.46-15.07,4.36c-4.36,2.91-7.77,6.87-10.21,11.9-2.45,5.03-3.67,10.71-3.67,17.05s1.22,11.83,3.67,16.86c2.44,5.03,5.85,8.99,10.21,11.9,4.36,2.91,9.39,4.36,15.07,4.36s10.91-1.45,15.27-4.36,7.76-6.87,10.21-11.9c2.45-5.02,3.67-10.64,3.67-16.86Zm75.42-40.29c6.67-4.17,14.03-6.25,22.09-6.25,5.14,0,9.48.35,13.02,1.04,3.54.7,6.28,1.53,8.23,2.5,2.08.97,3.61,2.05,4.58,3.23.97,1.18,1.91,2.19,2.81,3.02.9.83,2.12,1.25,3.65,1.25,1.11,0,2.05-.45,2.81-1.35s1.15-1.84,1.15-2.81c0-2.5-1.7-4.9-5.1-7.19-3.41-2.29-7.85-4.13-13.34-5.52-5.49-1.39-11.36-2.08-17.61-2.08-10.56,0-19.76,2.54-27.61,7.6-7.85,5.07-13.96,11.74-18.34,20-4.38,8.27-6.56,17.26-6.56,26.98,0,10.42,2.19,19.76,6.56,28.02,4.38,8.27,10.45,14.79,18.23,19.59,7.78,4.79,16.74,7.19,26.88,7.19,7.5,0,13.99-1.04,19.48-3.13,5.49-2.08,9.76-4.48,12.81-7.19s4.58-4.9,4.58-6.56c0-1.11-.31-2.01-.94-2.71-.63-.69-1.49-1.04-2.6-1.04-1.53,0-2.85.77-3.96,2.29-1.11,1.53-3.13,3.13-6.04,4.79-2.36,1.39-5.18,2.68-8.44,3.85-3.26,1.18-8.02,1.77-14.27,1.77-8.75,0-16.43-2.05-23.02-6.15-6.6-4.1-11.74-9.69-15.42-16.77-3.68-7.08-5.52-15.07-5.52-23.96s1.98-16.63,5.94-23.65c3.96-7.01,9.27-12.61,15.94-16.77h0Zm143.13-6.67c-5.49-3.61-12.4-5.42-20.73-5.42-5,0-10,1.01-15,3.02-5,2.01-9.55,4.79-13.65,8.33-3.35,2.89-6.16,6.14-8.44,9.74v-65.89c0-1.11-.38-2.08-1.15-2.92-.76-.83-1.77-1.25-3.02-1.25-1.11,0-2.08.42-2.92,1.25-.83.83-1.25,1.81-1.25,2.92v145.85c0,1.11.38,2.08,1.15,2.92.76.83,1.77,1.25,3.02,1.25,1.11,0,2.08-.42,2.92-1.25.83-.83,1.25-1.8,1.25-2.92v-60.84c0-5.97,1.84-11.39,5.52-16.25s8.37-8.75,14.06-11.67,11.53-4.38,17.5-4.38c6.94,0,12.5,1.46,16.67,4.38s7.22,6.81,9.17,11.67c1.94,4.86,2.92,10.28,2.92,16.25v60.84c0,1.11.38,2.08,1.15,2.92.76.83,1.77,1.25,3.02,1.25,1.11,0,2.08-.42,2.92-1.25s1.25-1.8,1.25-2.92v-60.84c0-7.36-1.35-14.1-4.06-20.21s-6.81-10.97-12.29-14.59h-.01Zm44.35,44.38c-.03.89-.05,1.79-.05,2.71,0,8.47,1.7,16.25,5.11,23.34,3.4,7.08,8.47,12.78,15.21,17.08,6.74,4.31,15.03,6.46,24.9,6.46,4.72,0,9.17-.8,13.33-2.4,4.17-1.6,7.92-3.72,11.25-6.36s6.04-5.49,8.13-8.54c1.11-1.25,2.29-1.88,3.54-1.88.97,0,1.8.38,2.5,1.15.69.76,1.04,1.63,1.04,2.6s-.28,1.81-.83,2.5c-4.31,5.56-9.83,10.42-16.56,14.59-6.74,4.17-14.2,6.25-22.4,6.25-10.42,0-19.62-2.22-27.61-6.67-7.99-4.44-14.27-10.73-18.86-18.86-4.58-8.13-6.88-17.67-6.88-28.65,0-11.67,2.26-21.6,6.77-29.8,4.51-8.19,10.35-14.48,17.5-18.86,7.15-4.38,14.76-6.56,22.82-6.56,5.83,0,11.53.94,17.08,2.81,5.55,1.88,10.52,4.79,14.9,8.75s7.92,8.89,10.63,14.79c2.71,5.91,4.2,12.95,4.48,21.15,0,1.11-.42,2.12-1.25,3.02-.83.9-1.81,1.35-2.92,1.35h-81.83v.03Zm3.59-17.71c-1.25,3-2.18,6.27-2.78,9.79h76.65v-1.87c-.7-7.36-3.02-13.54-6.98-18.54-3.96-5-8.72-8.78-14.27-11.36-5.56-2.57-11.32-3.85-17.29-3.85-4.17,0-8.54.94-13.13,2.81-4.58,1.87-8.82,4.72-12.71,8.54s-7.05,8.65-9.48,14.48h-.01Zm128.63-20c6.67-4.17,14.03-6.25,22.09-6.25,5.14,0,9.48.35,13.02,1.04,3.54.7,6.28,1.53,8.23,2.5,2.08.97,3.61,2.05,4.58,3.23.97,1.18,1.91,2.19,2.81,3.02.9.83,2.12,1.25,3.65,1.25,1.11,0,2.05-.45,2.81-1.35s1.15-1.84,1.15-2.81c0-2.5-1.7-4.9-5.1-7.19-3.41-2.29-7.85-4.13-13.34-5.52-5.49-1.39-11.36-2.08-17.61-2.08-10.56,0-19.76,2.54-27.61,7.6-7.85,5.07-13.96,11.74-18.34,20-4.38,8.27-6.56,17.26-6.56,26.98,0,10.42,2.19,19.76,6.56,28.02,4.38,8.27,10.45,14.79,18.23,19.59,7.78,4.79,16.74,7.19,26.88,7.19,7.5,0,13.99-1.04,19.48-3.13,5.49-2.08,9.76-4.48,12.81-7.19s4.58-4.9,4.58-6.56c0-1.11-.31-2.01-.94-2.71-.63-.69-1.49-1.04-2.6-1.04-1.53,0-2.85.77-3.96,2.29-1.11,1.53-3.13,3.13-6.04,4.79-2.36,1.39-5.18,2.68-8.44,3.85-3.26,1.18-8.02,1.77-14.27,1.77-8.75,0-16.43-2.05-23.02-6.15-6.6-4.1-11.74-9.69-15.42-16.77s-5.52-15.07-5.52-23.96,1.98-16.63,5.94-23.65c3.96-7.01,9.27-12.61,15.94-16.77h0Zm160.65,85.84l-48.36-51.37,46.9-39.06c.97-.83,1.46-1.88,1.46-3.13s-.42-2.29-1.25-3.13c-.83-.83-1.81-1.25-2.92-1.25-.97,0-1.88.42-2.71,1.25l-65.42,54.89v-100.93c0-1.11-.38-2.08-1.15-2.92-.76-.83-1.77-1.25-3.02-1.25s-2.26.42-3.02,1.25c-.77.83-1.15,1.81-1.15,2.92v145.85c0,1.11.38,2.08,1.15,2.92.76.83,1.77,1.25,3.02,1.25s2.26-.42,3.02-1.25,1.15-1.8,1.15-2.92v-34.55l17.58-14.64,48.68,51.9c.97.97,2.01,1.46,3.13,1.46.55,0,1.39-.34,2.5-1.04,1.11-.69,1.67-1.74,1.67-3.13,0-1.25-.42-2.29-1.25-3.13h-.01Z"/>
  <g>
    <polyline class="cls-2" points="33.62 175.77 64.79 224.31 118.54 145.82"/>
    <polyline class="cls-4" points="40.28 186.15 64.79 224.31 118.54 145.82"/>
    <polyline class="cls-3" points="51.12 203.03 64.79 224.31 120.61 142.8"/>
  </g>
  <g>
    <path class="cls-6" d="m301.55,2.95c.47,0,.85.12,1.16.35.31.23.47.61.47,1.12,0,.21-.05.47-.16.78l-17.77,51.22c-.1.31-.3.56-.58.74-.29.18-.56.27-.81.27-.36,0-.69-.06-.97-.19-.29-.13-.48-.38-.58-.74l-14.51-36.63h.62l-14.51,36.63c-.16.36-.38.61-.66.74-.29.13-.61.19-.97.19-.26,0-.52-.09-.78-.27-.26-.18-.44-.43-.54-.74l-17.77-51.22c-.1-.31-.16-.54-.16-.7,0-.52.19-.9.58-1.16.39-.26.76-.39,1.13-.39.31,0,.61.09.89.27.28.18.48.43.58.74l16.68,48.19-.54.08,14.28-36.08c.1-.31.28-.56.54-.74.26-.18.57-.27.93-.27.31,0,.61.09.89.27.28.18.48.43.58.74l14.43,36.32-.7.08,16.68-48.58c.1-.31.28-.56.54-.74.26-.18.59-.27,1.01-.27Z"/>
    <path class="cls-6" d="m331.97,58.2c-3.88,0-7.31-.83-10.28-2.48-2.98-1.66-5.32-4-7.02-7.02s-2.56-6.58-2.56-10.67c0-4.35.84-8.04,2.52-11.1,1.68-3.05,3.85-5.39,6.52-7.02,2.66-1.63,5.5-2.44,8.5-2.44,2.17,0,4.29.35,6.36,1.05,2.07.7,3.92,1.79,5.55,3.26,1.63,1.47,2.95,3.31,3.96,5.51,1.01,2.2,1.56,4.82,1.67,7.88,0,.41-.16.79-.47,1.13-.31.34-.67.5-1.09.5h-31.66l-.47-2.95h31.27l-.78.7v-1.4c-.26-2.74-1.12-5.04-2.6-6.91-1.47-1.86-3.25-3.27-5.32-4.23-2.07-.96-4.22-1.44-6.44-1.44-1.55,0-3.18.35-4.89,1.05-1.71.7-3.29,1.76-4.73,3.18-1.45,1.42-2.63,3.22-3.53,5.39-.91,2.17-1.36,4.71-1.36,7.6,0,3.16.63,6.05,1.9,8.69,1.27,2.64,3.16,4.76,5.67,6.36,2.51,1.6,5.6,2.41,9.27,2.41,1.76,0,3.41-.3,4.97-.89,1.55-.59,2.95-1.38,4.19-2.37,1.24-.98,2.25-2.04,3.03-3.18.41-.47.85-.7,1.32-.7.36,0,.67.14.93.43.26.28.39.61.39.97s-.1.67-.31.93c-1.6,2.07-3.66,3.88-6.17,5.43-2.51,1.55-5.29,2.33-8.34,2.33Z"/>
    <path class="cls-6" d="m364.48,55.87c0,.42-.16.78-.47,1.09-.31.31-.67.47-1.09.47-.47,0-.84-.16-1.12-.47-.29-.31-.43-.67-.43-1.09V1.55c0-.41.15-.78.47-1.09s.67-.47,1.09-.47c.47,0,.84.15,1.12.47.28.31.43.67.43,1.09v54.32Z"/>
    <path class="cls-6" d="m397.46,17.46c2.33,0,4.51.26,6.56.78,2.04.52,3.7,1.2,4.97,2.06,1.27.85,1.9,1.75,1.9,2.68,0,.36-.14.71-.43,1.05-.29.34-.63.5-1.05.5-.57,0-1.02-.16-1.36-.47-.34-.31-.69-.69-1.05-1.13-.36-.44-.93-.84-1.71-1.2-.73-.36-1.75-.67-3.06-.93-1.32-.26-2.94-.39-4.85-.39-3,0-5.74.78-8.23,2.33-2.48,1.55-4.46,3.64-5.94,6.25-1.47,2.61-2.21,5.55-2.21,8.81s.69,6.29,2.06,8.92c1.37,2.64,3.28,4.72,5.74,6.25,2.46,1.53,5.32,2.29,8.57,2.29,2.33,0,4.1-.22,5.32-.66,1.22-.44,2.26-.92,3.14-1.44,1.09-.62,1.84-1.21,2.25-1.78.41-.57.9-.85,1.47-.85.41,0,.74.13.97.39.23.26.35.6.35,1.01,0,.62-.57,1.44-1.71,2.44-1.14,1.01-2.73,1.9-4.77,2.68-2.04.78-4.46,1.16-7.26,1.16-3.78,0-7.11-.89-10.01-2.68-2.9-1.78-5.16-4.22-6.79-7.29-1.63-3.08-2.44-6.56-2.44-10.44,0-3.62.81-6.97,2.44-10.05,1.63-3.08,3.91-5.56,6.83-7.45,2.92-1.89,6.35-2.83,10.28-2.83Z"/>
    <path class="cls-6" d="m459.62,37.87c0,3.83-.83,7.28-2.48,10.36-1.66,3.08-3.92,5.51-6.79,7.29-2.87,1.79-6.14,2.68-9.82,2.68s-6.88-.89-9.78-2.68c-2.9-1.78-5.19-4.22-6.87-7.29-1.68-3.08-2.52-6.53-2.52-10.36s.84-7.36,2.52-10.44c1.68-3.08,3.97-5.51,6.87-7.29,2.9-1.78,6.16-2.68,9.78-2.68s6.95.89,9.82,2.68c2.87,1.78,5.13,4.22,6.79,7.29,1.66,3.08,2.48,6.56,2.48,10.44Zm-3.1,0c0-3.36-.69-6.35-2.06-8.96-1.37-2.61-3.26-4.68-5.67-6.21-2.41-1.52-5.16-2.29-8.26-2.29s-5.79.76-8.23,2.29c-2.43,1.53-4.35,3.6-5.74,6.21-1.4,2.61-2.1,5.6-2.1,8.96s.7,6.27,2.1,8.89c1.4,2.61,3.31,4.68,5.74,6.21,2.43,1.53,5.17,2.29,8.23,2.29s5.86-.76,8.26-2.29c2.41-1.53,4.29-3.6,5.67-6.21,1.37-2.61,2.06-5.57,2.06-8.89Z"/>
    <path class="cls-6" d="m489.96,18.24c2.9,0,5.55.79,7.95,2.37,2.41,1.58,4.05,4.05,4.93,7.41l-1.01.7.39-1.47c.67-1.71,1.85-3.23,3.53-4.58,1.68-1.34,3.57-2.42,5.67-3.22,2.09-.8,4.12-1.2,6.09-1.2,3.1,0,5.66.67,7.68,2.02,2.02,1.35,3.5,3.14,4.46,5.39s1.44,4.8,1.44,7.64v22.58c0,.42-.14.78-.43,1.09-.29.31-.66.47-1.12.47s-.84-.16-1.12-.47c-.29-.31-.43-.67-.43-1.09v-22.27c0-2.28-.38-4.36-1.12-6.25-.75-1.89-1.91-3.39-3.49-4.5-1.58-1.11-3.63-1.67-6.17-1.67-2.23,0-4.4.56-6.52,1.67-2.12,1.11-3.87,2.61-5.24,4.5-1.37,1.89-2.06,3.97-2.06,6.25v22.27c0,.42-.14.78-.43,1.09-.29.31-.66.47-1.12.47s-.84-.16-1.12-.47c-.29-.31-.43-.67-.43-1.09v-22.66c0-2.22-.35-4.24-1.05-6.05-.7-1.81-1.8-3.26-3.3-4.35s-3.49-1.63-5.97-1.63c-2.17,0-4.28.54-6.32,1.63-2.04,1.09-3.74,2.54-5.08,4.35-1.35,1.81-2.02,3.83-2.02,6.05v22.66c0,.42-.16.78-.47,1.09-.31.31-.67.47-1.09.47-.47,0-.84-.16-1.12-.47-.29-.31-.43-.67-.43-1.09V20.25c0-.41.16-.78.47-1.09.31-.31.67-.47,1.09-.47.47,0,.84.16,1.13.47.28.31.43.67.43,1.09v8.46l-2.33,3.96c0-1.81.44-3.57,1.32-5.28.88-1.71,2.06-3.25,3.53-4.62,1.47-1.37,3.16-2.47,5.04-3.3,1.89-.83,3.84-1.24,5.86-1.24Z"/>
    <path class="cls-6" d="m564.77,58.2c-3.88,0-7.31-.83-10.28-2.48-2.98-1.66-5.32-4-7.02-7.02-1.71-3.03-2.56-6.58-2.56-10.67,0-4.35.84-8.04,2.52-11.1,1.68-3.05,3.85-5.39,6.52-7.02,2.66-1.63,5.5-2.44,8.5-2.44,2.17,0,4.29.35,6.36,1.05,2.07.7,3.92,1.79,5.55,3.26,1.63,1.47,2.95,3.31,3.96,5.51,1.01,2.2,1.56,4.82,1.67,7.88,0,.41-.16.79-.47,1.13-.31.34-.67.5-1.09.5h-31.66l-.46-2.95h31.27l-.78.7v-1.4c-.26-2.74-1.13-5.04-2.6-6.91-1.47-1.86-3.25-3.27-5.32-4.23-2.07-.96-4.22-1.44-6.44-1.44-1.55,0-3.18.35-4.89,1.05-1.71.7-3.29,1.76-4.73,3.18-1.45,1.42-2.63,3.22-3.53,5.39-.91,2.17-1.36,4.71-1.36,7.6,0,3.16.63,6.05,1.9,8.69,1.27,2.64,3.16,4.76,5.67,6.36,2.51,1.6,5.6,2.41,9.27,2.41,1.76,0,3.41-.3,4.97-.89,1.55-.59,2.95-1.38,4.19-2.37,1.24-.98,2.25-2.04,3.03-3.18.41-.47.85-.7,1.32-.7.36,0,.67.14.93.43.26.28.39.61.39.97s-.1.67-.31.93c-1.6,2.07-3.66,3.88-6.17,5.43-2.51,1.55-5.29,2.33-8.34,2.33Z"/>
    <path class="cls-6" d="m614.82,18.39h18c.41,0,.76.16,1.05.47.28.31.43.65.43,1.01,0,.41-.14.76-.43,1.05-.28.29-.63.43-1.05.43h-18c-.36,0-.7-.16-1.01-.47-.31-.31-.47-.65-.47-1.01,0-.41.16-.76.47-1.05.31-.28.65-.43,1.01-.43Zm7.92-11.41c.47,0,.84.16,1.13.47.28.31.43.67.43,1.09v40.43c0,1.71.22,2.96.66,3.76.44.8,1,1.32,1.67,1.55.67.23,1.32.35,1.94.35.36,0,.67-.05.93-.16.26-.1.57-.16.93-.16s.67.14.93.43c.26.29.39.61.39.97,0,.47-.3.87-.89,1.2-.59.34-1.33.5-2.21.5-.31,0-.87-.01-1.67-.04-.8-.03-1.66-.26-2.56-.7-.91-.44-1.67-1.24-2.29-2.41-.62-1.16-.93-2.88-.93-5.16V8.54c0-.41.16-.78.47-1.09.31-.31.67-.47,1.09-.47Z"/>
    <path class="cls-6" d="m681.71,37.87c0,3.83-.83,7.28-2.48,10.36-1.66,3.08-3.92,5.51-6.79,7.29-2.87,1.79-6.14,2.68-9.82,2.68s-6.88-.89-9.78-2.68c-2.9-1.78-5.19-4.22-6.87-7.29-1.68-3.08-2.52-6.53-2.52-10.36s.84-7.36,2.52-10.44c1.68-3.08,3.97-5.51,6.87-7.29,2.9-1.78,6.16-2.68,9.78-2.68s6.95.89,9.82,2.68,5.13,4.22,6.79,7.29c1.66,3.08,2.48,6.56,2.48,10.44Zm-3.1,0c0-3.36-.69-6.35-2.06-8.96-1.37-2.61-3.26-4.68-5.67-6.21-2.41-1.52-5.16-2.29-8.26-2.29s-5.79.76-8.23,2.29c-2.43,1.53-4.35,3.6-5.74,6.21-1.4,2.61-2.09,5.6-2.09,8.96s.7,6.27,2.09,8.89c1.4,2.61,3.31,4.68,5.74,6.21,2.43,1.53,5.17,2.29,8.23,2.29s5.86-.76,8.26-2.29c2.41-1.53,4.29-3.6,5.67-6.21,1.37-2.61,2.06-5.57,2.06-8.89Z"/>
  </g>
  <g>
    <line class="cls-1" x1="200.13" y1="34.06" x2="194.13" y2="34.06"/>
    <line class="cls-5" x1="182.18" y1="34.06" x2="68.65" y2="34.06"/>
    <line class="cls-1" x1="62.68" y1="34.06" x2="56.68" y2="34.06"/>
  </g>
  <g>
    <line class="cls-1" x1="881.23" y1="34.06" x2="875.23" y2="34.06"/>
    <line class="cls-5" x1="863.28" y1="34.06" x2="749.76" y2="34.06"/>
    <line class="cls-1" x1="743.79" y1="34.06" x2="737.79" y2="34.06"/>
  </g>
</svg>